# xmcd
#
# Track frame offsets:
#	150
#	11205
#	23910
#	35345
#	53080
#	68205
#	81365
#	91435
#	103640
#	120590
#	134935
#	146770
#	157765
#	169470
#
# Disc length: 2437 seconds
#
# Revision: 6
# Processed by: cddbd v1.5.1PL2 Copyright (c) Steve Scherf et al.
# Submitted via: audiograbber 1.83.01
#
DISCID=c409830e
DTITLE=Various Artist - More Blues
DYEAR=1900
DGENRE=Blues
TTITLE0=John Lee Hooker - Boom, Boom. Boom
TTITLE1=Elmore James - Dust My Broom
TTITLE2=Little Richard - Need Him
TTITLE3=Rod Stewart - Don't You Tell Nobody
TTITLE4=Tina Turner - Crazy 'Bout You Baby
TTITLE5=Ted Taylor - She's a Winner
TTITLE6=John Lee Hooker - Dimples
TTITLE7=Rod Stewart - Mopper Blues
TTITLE8=Tina Turner - I Smell Trouble
TTITLE9=Ray Charles - Walking and Talking
TTITLE10=Lighthing Hopkins - Lonesome Dog
TTITLE11=Jimmy Reed - Good Lover
TTITLE12=Joe Tex - I Just Can't Take It
TTITLE13=Canned Heat - Rollin' and Tumblin'
EXTD=
EXTT0=John Lee Hooker\n
EXTT1=Elmore james\n
EXTT2=Littke Richard\n
EXTT3=Rod Stewart\n
EXTT4=Tina Turner\n
EXTT5=Ted Taylor\n
EXTT6=John Lee Hooker\n
EXTT7=Rod Stewart\n
EXTT8=Tina Turner\n
EXTT9=Ray Charles\n
EXTT10=Lighting Hopkins\n
EXTT11=Jimmy Reed\n
EXTT12=Joe Tex\n
EXTT13=Canned Heat\n
PLAYORDER=
